<svg xmlns="http://www.w3.org/2000/svg"
     viewBox="0 0 512 512">
    <path d="m-1.6875-1.1992c-0.0089858 0.0018771-0.017312 0.0075466-0.023438 0.013672-7.88e-4 9.557e-4 -0.0031549 0.0047547-0.0039063 0.0058594-0.0041824 0.0073498-0.0078124 0.017345-0.0078124 0.025391v514.29c-1e-7 0.01073 0.005693 0.02346 0.011719 0.03125 0.0019193 0.00204 0.0074874 0.00619 0.0097656 0.00781 0.006099 0.00349 0.013821 0.00586 0.021484 0.00586h515.09c0.0092 0 0.01833-0.00305 0.02539-0.00781 0.00922-0.00759 0.01843-0.02404 0.01953-0.03711v-514.29c0-0.010728-0.00541-0.021651-0.01171-0.029297-1e-3 -1e-3 -0.00477-0.0049587-0.00586-0.0058593-0.00707-0.0047633-0.01815-0.0097657-0.02735-0.0097657h-515.09-0.0019531-0.0019532c-0.0013051 1.318e-4 -0.0026225-2.681e-4 -0.0039062 0zm427.35 180.53h46.668v23.332h-23.334v116.67h23.334v23.334h-46.668v-70.002h-23.332v-23.332h23.332v-70zm-359.87 29.258h25v12.5h-25v-12.5zm62.5 0h37.5v75h25v12.5h-62.5v-12.5h25v-62.5h-25v-12.5zm187.5 12.5h12.5v12.5h37.5v12.5h-37.5v37.5h25v-12.5h12.5v25h-50v-50h-12.5v-12.5h12.5v-12.5zm-262.5 12.5h37.5v87.5h-50v-37.5h12.5v25h25v-62.5h-25v-12.5zm162.5 0h62.5v37.5h-50v12.5h37.5v12.5h-50v-62.5zm12.5 12.5v12.5h37.5v-12.5h-37.5z"
          fill="#4a48d1"/>
</svg>
